# xmcd
#
# Track frame offsets: 
#        150
#        16494
#        32584
#        55692
#        74241
#        93730
#        110435
#        124268
#        147307
#        161561
#        185574
#
# Disc length: 2865 seconds
#
# Revision: 1
# Processed by: cddbd v1.5.2PL0 Copyright (c) Steve Scherf et al.
# Submitted via: ExactAudioCopy v1.1
#
DISCID=a10b2f0b
DTITLE=Shooter Jennings - The Other Life
DYEAR=2013
DGENRE=Country
TTITLE0=Flying Saucer Song
TTITLE1=A Hard Lesson To Learn
TTITLE2=The White Trash Song (ft Scott H. Biram)
TTITLE3=Wild and Lonesome (ft Patty Griffin)
TTITLE4=Outlaw You
TTITLE5=The Other Life
TTITLE6=The Low Road
TTITLE7=Mama, It's Just My Medicine
TTITLE8=The Outsider
TTITLE9=15 Million Light-Years Away (ft Jim Dandy)
TTITLE10=The Gunslinger
EXTD=YEAR: 2013
EXTT0=
EXTT1=
EXTT2=
EXTT3=
EXTT4=
EXTT5=
EXTT6=
EXTT7=
EXTT8=
EXTT9=
EXTT10=
PLAYORDER=
